<mxfile host="app.diagrams.net" modified="2023-07-31T16:12:53.946Z" agent="Mozilla/5.0 (Windows NT 10.0; Win64; x64; rv:109.0) Gecko/20100101 Firefox/115.0" version="21.6.6" etag="V-mgVhxEAoy5Xrmz3viU" type="github">
  <diagram name="Page-1" id="8DR-gictLASKWc21rXF1">
    <mxGraphModel>
      <root>
        <mxCell id="0" />
        <mxCell id="1" parent="0" />
      </root>
    </mxGraphModel>
  </diagram>
</mxfile>
